<svg width="25" height="26" viewBox="0 0 25 26" fill="none" xmlns="http://www.w3.org/2000/svg">
<path d="M5.29871 15.2831C4.70866 15.2831 4.14277 15.0369 3.72554 14.5987C3.30831 14.1605 3.07391 13.5661 3.07391 12.9464C3.07391 12.3266 3.30831 11.7323 3.72554 11.294C4.14277 10.8558 4.70866 10.6096 5.29871 10.6096C5.88876 10.6096 6.45465 10.8558 6.87188 11.294C7.2891 11.7323 7.5235 12.3266 7.5235 12.9464C7.5235 13.5661 7.2891 14.1605 6.87188 14.5987C6.45465 15.0369 5.88876 15.2831 5.29871 15.2831ZM12.7147 15.2831C12.1246 15.2831 11.5588 15.0369 11.1415 14.5987C10.7243 14.1605 10.4899 13.5661 10.4899 12.9464C10.4899 12.3266 10.7243 11.7323 11.1415 11.294C11.5588 10.8558 12.1246 10.6096 12.7147 10.6096C13.3047 10.6096 13.8706 10.8558 14.2879 11.294C14.7051 11.7323 14.9395 12.3266 14.9395 12.9464C14.9395 13.5661 14.7051 14.1605 14.2879 14.5987C13.8706 15.0369 13.3047 15.2831 12.7147 15.2831ZM20.1307 15.2831C19.5406 15.2831 18.9747 15.0369 18.5575 14.5987C18.1403 14.1605 17.9059 13.5661 17.9059 12.9464C17.9059 12.3266 18.1403 11.7323 18.5575 11.294C18.9747 10.8558 19.5406 10.6096 20.1307 10.6096C20.7207 10.6096 21.2866 10.8558 21.7038 11.294C22.1211 11.7323 22.3555 12.3266 22.3555 12.9464C22.3555 13.5661 22.1211 14.1605 21.7038 14.5987C21.2866 15.0369 20.7207 15.2831 20.1307 15.2831Z" fill="#212529"/>
</svg>
