<svg width="54" height="54" viewBox="0 0 54 54" fill="none" xmlns="http://www.w3.org/2000/svg">
<path d="M21.9375 48.9375V37.1081C21.9375 36.2812 22.7813 35.4375 23.625 35.4375H30.375C31.2188 35.4375 32.0625 36.2812 32.0625 37.125V48.9375C32.0625 49.385 32.2403 49.8143 32.5568 50.1307C32.8732 50.4472 33.3025 50.625 33.75 50.625H47.25C47.6976 50.625 48.1268 50.4472 48.4433 50.1307C48.7597 49.8143 48.9375 49.385 48.9375 48.9375V25.3125C48.9379 25.0907 48.8946 24.8711 48.81 24.6661C48.7255 24.4611 48.6014 24.2747 48.4448 24.1177L43.875 19.5514V8.4375C43.875 7.98994 43.6972 7.56072 43.3808 7.24425C43.0643 6.92779 42.6351 6.75 42.1875 6.75H38.8125C38.365 6.75 37.9357 6.92779 37.6193 7.24425C37.3028 7.56072 37.125 7.98994 37.125 8.4375V12.8014L28.1948 3.86775C28.038 3.71059 27.8518 3.58591 27.6468 3.50084C27.4418 3.41577 27.222 3.37198 27 3.37198C26.778 3.37198 26.5583 3.41577 26.3532 3.50084C26.1482 3.58591 25.962 3.71059 25.8053 3.86775L5.55525 24.1177C5.39865 24.2747 5.27452 24.4611 5.18997 24.6661C5.10542 24.8711 5.06211 25.0907 5.0625 25.3125V48.9375C5.0625 49.385 5.24029 49.8143 5.55676 50.1307C5.87323 50.4472 6.30245 50.625 6.75 50.625H20.25C20.6976 50.625 21.1268 50.4472 21.4432 50.1307C21.7597 49.8143 21.9375 49.385 21.9375 48.9375Z" fill="#283343"/>
</svg>
