<svg width="54" height="54" viewBox="0 0 54 54" fill="none" xmlns="http://www.w3.org/2000/svg">
<path fill-rule="evenodd" clip-rule="evenodd" d="M29.1803 19.0553C29.337 18.8981 29.5232 18.7734 29.7282 18.6883C29.9333 18.6033 30.153 18.5595 30.375 18.5595C30.597 18.5595 30.8167 18.6033 31.0218 18.6883C31.2268 18.7734 31.413 18.8981 31.5697 19.0553L38.3198 25.8053C38.4769 25.962 38.6016 26.1482 38.6867 26.3532C38.7717 26.5583 38.8155 26.778 38.8155 27C38.8155 27.222 38.7717 27.4417 38.6867 27.6468C38.6016 27.8518 38.4769 28.038 38.3198 28.1947L31.5697 34.9448C31.2529 35.2616 30.8231 35.4396 30.375 35.4396C29.9269 35.4396 29.4971 35.2616 29.1803 34.9448C28.8634 34.6279 28.6854 34.1981 28.6854 33.75C28.6854 33.3019 28.8634 32.8721 29.1803 32.5552L34.7389 27L29.1803 21.4447C29.0231 21.288 28.8984 21.1018 28.8133 20.8968C28.7283 20.6917 28.6845 20.472 28.6845 20.25C28.6845 20.028 28.7283 19.8083 28.8133 19.6032C28.8984 19.3982 29.0231 19.212 29.1803 19.0553ZM24.8197 19.0553C24.663 18.8981 24.4768 18.7734 24.2718 18.6883C24.0667 18.6033 23.847 18.5595 23.625 18.5595C23.403 18.5595 23.1833 18.6033 22.9782 18.6883C22.7732 18.7734 22.587 18.8981 22.4303 19.0553L15.6803 25.8053C15.5231 25.962 15.3984 26.1482 15.3133 26.3532C15.2283 26.5583 15.1845 26.778 15.1845 27C15.1845 27.222 15.2283 27.4417 15.3133 27.6468C15.3984 27.8518 15.5231 28.038 15.6803 28.1947L22.4303 34.9448C22.7471 35.2616 23.1769 35.4396 23.625 35.4396C24.0731 35.4396 24.5029 35.2616 24.8197 34.9448C25.1366 34.6279 25.3146 34.1981 25.3146 33.75C25.3146 33.3019 25.1366 32.8721 24.8197 32.5552L19.2611 27L24.8197 21.4447C24.9769 21.288 25.1016 21.1018 25.1867 20.8968C25.2717 20.6917 25.3155 20.472 25.3155 20.25C25.3155 20.028 25.2717 19.8083 25.1867 19.6032C25.1016 19.3982 24.9769 19.212 24.8197 19.0553Z" fill="white"/>
<path d="M10.125 0H43.875C45.6652 0 47.3821 0.711159 48.648 1.97703C49.9138 3.2429 50.625 4.95979 50.625 6.75V47.25C50.625 49.0402 49.9138 50.7571 48.648 52.023C47.3821 53.2888 45.6652 54 43.875 54H10.125C8.33479 54 6.6179 53.2888 5.35203 52.023C4.08616 50.7571 3.375 49.0402 3.375 47.25V43.875H6.75V47.25C6.75 48.1451 7.10558 49.0036 7.73851 49.6365C8.37145 50.2694 9.22989 50.625 10.125 50.625H43.875C44.7701 50.625 45.6286 50.2694 46.2615 49.6365C46.8944 49.0036 47.25 48.1451 47.25 47.25V6.75C47.25 5.85489 46.8944 4.99645 46.2615 4.36351C45.6286 3.73058 44.7701 3.375 43.875 3.375H10.125C9.22989 3.375 8.37145 3.73058 7.73851 4.36351C7.10558 4.99645 6.75 5.85489 6.75 6.75V10.125H3.375V6.75C3.375 4.95979 4.08616 3.2429 5.35203 1.97703C6.6179 0.711159 8.33479 0 10.125 0Z" fill="white"/>
<path d="M3.375 16.875V15.1875C3.375 14.7399 3.55279 14.3107 3.86926 13.9943C4.18573 13.6778 4.61495 13.5 5.0625 13.5C5.51005 13.5 5.93927 13.6778 6.25574 13.9943C6.57221 14.3107 6.75 14.7399 6.75 15.1875V16.875H8.4375C8.88505 16.875 9.31427 17.0528 9.63074 17.3693C9.94721 17.6857 10.125 18.1149 10.125 18.5625C10.125 19.0101 9.94721 19.4393 9.63074 19.7557C9.31427 20.0722 8.88505 20.25 8.4375 20.25H1.6875C1.23995 20.25 0.810725 20.0722 0.494257 19.7557C0.17779 19.4393 0 19.0101 0 18.5625C0 18.1149 0.17779 17.6857 0.494257 17.3693C0.810725 17.0528 1.23995 16.875 1.6875 16.875H3.375ZM3.375 27V25.3125C3.375 24.8649 3.55279 24.4357 3.86926 24.1193C4.18573 23.8028 4.61495 23.625 5.0625 23.625C5.51005 23.625 5.93927 23.8028 6.25574 24.1193C6.57221 24.4357 6.75 24.8649 6.75 25.3125V27H8.4375C8.88505 27 9.31427 27.1778 9.63074 27.4943C9.94721 27.8107 10.125 28.2399 10.125 28.6875C10.125 29.1351 9.94721 29.5643 9.63074 29.8807C9.31427 30.1972 8.88505 30.375 8.4375 30.375H1.6875C1.23995 30.375 0.810725 30.1972 0.494257 29.8807C0.17779 29.5643 0 29.1351 0 28.6875C0 28.2399 0.17779 27.8107 0.494257 27.4943C0.810725 27.1778 1.23995 27 1.6875 27H3.375ZM3.375 37.125V35.4375C3.375 34.9899 3.55279 34.5607 3.86926 34.2443C4.18573 33.9278 4.61495 33.75 5.0625 33.75C5.51005 33.75 5.93927 33.9278 6.25574 34.2443C6.57221 34.5607 6.75 34.9899 6.75 35.4375V37.125H8.4375C8.88505 37.125 9.31427 37.3028 9.63074 37.6193C9.94721 37.9357 10.125 38.3649 10.125 38.8125C10.125 39.2601 9.94721 39.6893 9.63074 40.0057C9.31427 40.3222 8.88505 40.5 8.4375 40.5H1.6875C1.23995 40.5 0.810725 40.3222 0.494257 40.0057C0.17779 39.6893 0 39.2601 0 38.8125C0 38.3649 0.17779 37.9357 0.494257 37.6193C0.810725 37.3028 1.23995 37.125 1.6875 37.125H3.375Z" fill="white"/>
</svg>
