<svg width="54" height="54" viewBox="0 0 54 54" fill="none" xmlns="http://www.w3.org/2000/svg">
<path d="M13.5 54C13.5 54 10.125 54 10.125 50.625C10.125 47.25 13.5 37.125 27 37.125C40.5 37.125 43.875 47.25 43.875 50.625C43.875 54 40.5 54 40.5 54H13.5ZM27 33.9188C29.2378 33.9188 31.3839 33.0298 32.9662 31.4475C34.5486 29.8651 35.4375 27.719 35.4375 25.4813C35.4375 23.2435 34.5486 21.0974 32.9662 19.515C31.3839 17.9327 29.2378 17.0438 27 17.0438C24.7622 17.0438 22.6161 17.9327 21.0338 19.515C19.4514 21.0974 18.5625 23.2435 18.5625 25.4813C18.5625 27.719 19.4514 29.8651 21.0338 31.4475C22.6161 33.0298 24.7622 33.9188 27 33.9188Z" fill="white"/>
<path d="M6.75 3.375C4.95979 3.375 3.2429 4.08616 1.97703 5.35203C0.711159 6.6179 0 8.33479 0 10.125V42.1875C0 43.5302 0.533369 44.8178 1.48277 45.7672C2.43217 46.7166 3.71984 47.25 5.0625 47.25H7.26638C7.97206 44.7698 9.19859 42.4686 10.8641 40.5H3.375V10.125C3.375 9.22989 3.73058 8.37145 4.36351 7.73851C4.99645 7.10558 5.85489 6.75 6.75 6.75H47.25C48.1451 6.75 49.0036 7.10558 49.6365 7.73851C50.2694 8.37145 50.625 9.22989 50.625 10.125V40.5H43.1359C45.0056 42.7073 46.1396 45.1339 46.7336 47.25H48.9375C50.2802 47.25 51.5678 46.7166 52.5172 45.7672C53.4666 44.8178 54 43.5302 54 42.1875V10.125C54 8.33479 53.2888 6.6179 52.023 5.35203C50.7571 4.08616 49.0402 3.375 47.25 3.375H6.75Z" fill="white"/>
</svg>
